<svg width="91" height="92" viewBox="0 0 91 92" fill="none" xmlns="http://www.w3.org/2000/svg">
<ellipse cx="45.5" cy="46" rx="45.5" ry="46" fill="#FDB143"/>
<path d="M45 26.8333C42.483 26.8333 39.9906 27.3291 37.6652 28.2923C35.3398 29.2555 33.2269 30.6673 31.4471 32.4471C27.8527 36.0415 25.8333 40.9167 25.8333 46C25.8333 54.4716 31.3341 61.6591 38.9433 64.2083C39.9016 64.3616 40.2083 63.7675 40.2083 63.25V60.0108C34.8991 61.1608 33.7683 57.4425 33.7683 57.4425C32.8866 55.2191 31.6408 54.625 31.6408 54.625C29.8966 53.4366 31.775 53.475 31.775 53.475C33.6916 53.6091 34.7075 55.4491 34.7075 55.4491C36.375 58.3625 39.1925 57.5 40.285 57.04C40.4575 55.7941 40.9558 54.9508 41.4925 54.4716C37.2375 53.9925 32.7716 52.3441 32.7716 45.0416C32.7716 42.9141 33.5 41.2083 34.7458 39.8475C34.5541 39.3683 33.8833 37.375 34.9375 34.7875C34.9375 34.7875 36.5475 34.27 40.2083 36.7425C41.7225 36.3208 43.3708 36.11 45 36.11C46.6291 36.11 48.2775 36.3208 49.7916 36.7425C53.4525 34.27 55.0625 34.7875 55.0625 34.7875C56.1166 37.375 55.4458 39.3683 55.2541 39.8475C56.5 41.2083 57.2283 42.9141 57.2283 45.0416C57.2283 52.3633 52.7433 53.9733 48.4691 54.4525C49.1591 55.0466 49.7916 56.2158 49.7916 57.9983V63.25C49.7916 63.7675 50.0983 64.3808 51.0758 64.2083C58.685 61.64 64.1666 54.4716 64.1666 46C64.1666 43.483 63.6709 40.9906 62.7077 38.6652C61.7445 36.3398 60.3326 34.2269 58.5529 32.4471C56.7731 30.6673 54.6602 29.2555 52.3347 28.2923C50.0093 27.3291 47.517 26.8333 45 26.8333Z" fill="black"/>
</svg>
