<svg width="91" height="92" viewBox="0 0 91 92" fill="none" xmlns="http://www.w3.org/2000/svg">
<ellipse cx="45.5" cy="46" rx="45.5" ry="46" fill="#FDB143"/>
<path d="M46.9703 26.8333C49.1266 26.8391 50.221 26.8506 51.1659 26.8774L51.5377 26.8908C51.9671 26.9062 52.3906 26.9253 52.9024 26.9483C54.9417 27.0442 56.3332 27.3662 57.5541 27.8396C58.8191 28.3264 59.8848 28.9858 60.9505 30.0495C61.9255 31.0073 62.6797 32.1664 63.1604 33.4458C63.6338 34.6668 63.9558 36.0583 64.0516 38.0995C64.0746 38.6093 64.0938 39.0329 64.1091 39.4642L64.1206 39.836C64.1494 40.779 64.1609 41.8734 64.1647 44.0297L64.1666 45.4595V47.9703C64.1713 49.3684 64.1566 50.7664 64.1226 52.164L64.1111 52.5358C64.0957 52.9671 64.0766 53.3907 64.0536 53.9005C63.9577 55.9418 63.6319 57.3313 63.1604 58.5542C62.6797 59.8336 61.9255 60.9927 60.9505 61.9505C59.9926 62.9255 58.8336 63.6797 57.5541 64.1604C56.3332 64.6338 54.9417 64.9558 52.9024 65.0517L51.5377 65.1092L51.1659 65.1207C50.221 65.1475 49.1266 65.1609 46.9703 65.1648L45.5405 65.1667H43.0316C41.6329 65.1716 40.2342 65.1569 38.836 65.1226L38.4641 65.1111C38.0091 65.0939 37.5542 65.0741 37.0995 65.0517C35.0601 64.9558 33.6686 64.6338 32.4458 64.1604C31.1671 63.6795 30.0087 62.9253 29.0514 61.9505C28.0757 60.9929 27.3208 59.8338 26.8396 58.5542C26.3661 57.3333 26.0441 55.9418 25.9483 53.9005L25.8908 52.5358L25.8812 52.164C25.8459 50.7664 25.8299 49.3684 25.8333 47.9703V44.0297C25.828 42.6317 25.8421 41.2336 25.8755 39.836L25.8889 39.4642C25.9042 39.0329 25.9234 38.6093 25.9464 38.0995C26.0422 36.0583 26.3642 34.6687 26.8376 33.4458C27.3201 32.1659 28.0762 31.0068 29.0533 30.0495C30.01 29.075 31.1677 28.3208 32.4458 27.8396C33.6686 27.3662 35.0582 27.0442 37.0995 26.9483C37.6093 26.9253 38.0348 26.9062 38.4641 26.8908L38.836 26.8793C40.2336 26.8453 41.6316 26.8306 43.0296 26.8353L46.9703 26.8333ZM45 36.4167C42.4583 36.4167 40.0208 37.4263 38.2235 39.2236C36.4263 41.0208 35.4166 43.4584 35.4166 46C35.4166 48.5417 36.4263 50.9792 38.2235 52.7765C40.0208 54.5737 42.4583 55.5833 45 55.5833C47.5416 55.5833 49.9792 54.5737 51.7764 52.7765C53.5736 50.9792 54.5833 48.5417 54.5833 46C54.5833 43.4584 53.5736 41.0208 51.7764 39.2236C49.9792 37.4263 47.5416 36.4167 45 36.4167ZM45 40.25C45.7551 40.2499 46.5028 40.3985 47.2005 40.6873C47.8981 40.9762 48.5321 41.3996 49.0661 41.9335C49.6001 42.4673 50.0238 43.1011 50.3129 43.7987C50.6019 44.4963 50.7508 45.244 50.7509 45.9991C50.7511 46.7542 50.6025 47.5019 50.3136 48.1996C50.0248 48.8972 49.6013 49.5312 49.0675 50.0652C48.5336 50.5992 47.8998 51.0229 47.2022 51.312C46.5047 51.601 45.757 51.7499 45.0019 51.75C43.4769 51.75 42.0144 51.1442 40.936 50.0659C39.8577 48.9875 39.2519 47.525 39.2519 46C39.2519 44.475 39.8577 43.0125 40.936 41.9341C42.0144 40.8558 43.4769 40.25 45.0019 40.25M55.0644 33.5417C54.429 33.5417 53.8196 33.7941 53.3703 34.2434C52.921 34.6927 52.6686 35.3021 52.6686 35.9375C52.6686 36.5729 52.921 37.1823 53.3703 37.6316C53.8196 38.0809 54.429 38.3333 55.0644 38.3333C55.6998 38.3333 56.3092 38.0809 56.7585 37.6316C57.2078 37.1823 57.4602 36.5729 57.4602 35.9375C57.4602 35.3021 57.2078 34.6927 56.7585 34.2434C56.3092 33.7941 55.6998 33.5417 55.0644 33.5417Z" fill="black"/>
</svg>
