<svg width="91" height="92" viewBox="0 0 91 92" fill="none" xmlns="http://www.w3.org/2000/svg">
<ellipse cx="45.5" cy="46" rx="45.5" ry="46" fill="black"/>
<path d="M56 32.5C56.7957 32.5 57.5587 32.8161 58.1213 33.3787C58.6839 33.9413 59 34.7044 59 35.5V56.5C59 57.2957 58.6839 58.0587 58.1213 58.6213C57.5587 59.1839 56.7957 59.5 56 59.5H35C34.2044 59.5 33.4413 59.1839 32.8787 58.6213C32.3161 58.0587 32 57.2957 32 56.5V35.5C32 34.7044 32.3161 33.9413 32.8787 33.3787C33.4413 32.8161 34.2044 32.5 35 32.5H56ZM55.25 55.75V47.8C55.25 46.5031 54.7348 45.2593 53.8178 44.3422C52.9007 43.4252 51.6569 42.91 50.36 42.91C49.085 42.91 47.6 43.69 46.88 44.86V43.195H42.695V55.75H46.88V48.355C46.88 47.2 47.81 46.255 48.965 46.255C49.522 46.255 50.0561 46.4762 50.4499 46.8701C50.8438 47.2639 51.065 47.798 51.065 48.355V55.75H55.25ZM37.82 40.84C38.4883 40.84 39.1293 40.5745 39.6019 40.1019C40.0745 39.6293 40.34 38.9883 40.34 38.32C40.34 36.925 39.215 35.785 37.82 35.785C37.1477 35.785 36.5029 36.0521 36.0275 36.5275C35.5521 37.0029 35.285 37.6477 35.285 38.32C35.285 39.715 36.425 40.84 37.82 40.84ZM39.905 55.75V43.195H35.75V55.75H39.905Z" fill="#FDB143"/>
</svg>
