<svg width="91" height="92" viewBox="0 0 91 92" fill="none" xmlns="http://www.w3.org/2000/svg">
<g clip-path="url(#clip0_11_71)">
<ellipse cx="45.5" cy="46" rx="45.5" ry="46" fill="black"/>
<path d="M64.3319 31.6431C64.3312 30.5891 63.9122 29.5784 63.1669 28.8331C62.4216 28.0878 61.4109 27.6688 60.3569 27.6681L39.1413 27.6625C38.086 27.6625 37.074 28.0817 36.3279 28.8278C35.5817 29.574 35.1625 30.586 35.1625 31.6413C35.1625 32.6965 35.5817 33.7085 36.3279 34.4547C37.074 35.2008 38.086 35.62 39.1413 35.62L50.7531 35.6219L29.125 57.25C28.3791 57.9959 27.96 59.0076 27.96 60.0625C27.96 61.1174 28.3791 62.1291 29.125 62.875C29.8709 63.6209 30.8826 64.04 31.9375 64.04C32.9924 64.04 34.0041 63.6209 34.75 62.875L56.3781 41.2469L56.3781 52.8569C56.3781 53.3794 56.481 53.8968 56.681 54.3795C56.8809 54.8622 57.174 55.3008 57.5435 55.6703C57.9129 56.0397 58.3516 56.3328 58.8343 56.5328C59.317 56.7327 59.8344 56.8356 60.3569 56.8356C60.8794 56.8356 61.3968 56.7327 61.8795 56.5328C62.3622 56.3328 62.8008 56.0397 63.1703 55.6703C63.5397 55.3008 63.8328 54.8622 64.0328 54.3795C64.2327 53.8968 64.3356 53.3794 64.3356 52.8569L64.3319 31.6431Z" fill="#FDB143"/>
</g>
<defs>
<clipPath id="clip0_11_71">
<rect width="91" height="92" fill="white"/>
</clipPath>
</defs>
</svg>
